<svg width="130" height="123" viewBox="0 0 130 123" fill="none" xmlns="http://www.w3.org/2000/svg">
<path d="M96.0002 60.4C97.1182 69.415 95.0729 78.5386 90.2134 86.2136C85.354 93.8887 77.9816 99.6394 69.3545 102.484C60.7275 105.329 51.3804 105.092 42.9087 101.813C34.437 98.5345 27.3658 92.4173 22.9018 84.5057C18.4379 76.5941 16.8579 67.3786 18.4316 58.4319C20.0052 49.4851 24.635 41.3618 31.5308 35.4484C38.4265 29.5349 47.1607 26.1978 56.2428 26.0066C65.3248 25.8154 74.1917 28.782 81.3302 34.4L93.0002 20.67C82.17 11.9617 68.537 7.49965 54.6539 8.11922C40.7707 8.7388 27.5893 14.3975 17.5779 24.0359C7.56651 33.6743 1.41155 46.6314 0.265496 60.481C-0.880557 74.3307 3.06089 88.1232 11.3518 99.2761C19.6428 110.429 31.7147 118.177 45.3072 121.071C58.8997 123.964 73.0807 121.803 85.195 114.994C97.3093 108.184 106.526 97.1923 111.12 84.0764C115.713 70.9606 115.369 56.62 110.15 43.74L96.0002 60.4Z" fill="#7BBBBB"/>
<path d="M58.1901 92.07C56.9202 92.0731 55.664 91.8073 54.5041 91.2903C53.3441 90.7732 52.3068 90.0166 51.4601 89.07L27.7501 62.39C26.1588 60.6051 25.3418 58.2611 25.4787 55.8738C25.5465 54.6917 25.8464 53.5346 26.3614 52.4684C26.8764 51.4022 27.5963 50.4479 28.4801 49.66C29.3639 48.8721 30.3943 48.2659 31.5123 47.8762C32.6304 47.4864 33.8142 47.3207 34.9963 47.3885C37.3837 47.5254 39.6188 48.6051 41.2101 50.39L58.0001 69.35L114.14 3.17999C114.892 2.23983 115.825 1.46007 116.884 0.88686C117.942 0.313652 119.105 -0.0413499 120.303 -0.157131C121.502 -0.272912 122.711 -0.147119 123.86 0.212801C125.008 0.572721 126.073 1.15945 126.991 1.93827C127.909 2.71708 128.662 3.67215 129.204 4.74693C129.746 5.82171 130.067 6.99437 130.148 8.19549C130.229 9.3966 130.069 10.6018 129.676 11.7396C129.283 12.8775 128.665 13.925 127.86 14.82L65.0501 88.9C64.2158 89.8813 63.1806 90.6722 62.0144 91.2191C60.8482 91.7659 59.5781 92.0561 58.2901 92.07H58.1901Z" fill="#7BBBBB"/>
</svg>
