<svg width="88" height="70" viewBox="0 0 88 70" fill="none" xmlns="http://www.w3.org/2000/svg">
<g clip-path="url(#clip0_313_1091)">
<path d="M14.4816 56.8965C26.6963 56.945 32.8235 60.1348 41.5108 67.4442C42.1896 68.0141 43.0452 68.3279 43.9297 68.3313C44.8143 68.3347 45.6722 68.0275 46.3554 67.4628C55.0984 60.2218 60.737 57.1153 72.9467 57.1638C76.3496 57.1755 79.7426 57.5337 83.0737 58.2328C83.4496 58.3151 83.839 58.3118 84.2135 58.2234C84.588 58.135 84.9381 57.9636 85.2382 57.7217C85.5384 57.4799 85.781 57.1737 85.9483 56.8255C86.1156 56.4773 86.2034 56.096 86.2053 55.7093L86.3289 21.9705L86.3376 19.6334C86.3419 18.2464 85.8801 16.8985 85.0271 15.8081C84.1741 14.7177 82.9798 13.9487 81.6377 13.6256C78.0916 12.768 74.4581 12.3287 70.8107 12.3166C58.3425 12.2669 52.5691 15.8892 44.1378 23.8326C35.7695 15.8234 29.5101 12.1164 17.0418 12.068C13.5108 12.0513 9.98914 12.4354 6.54382 13.2129C5.19829 13.5216 3.99667 14.2798 3.13519 15.3635C2.2737 16.4473 1.80325 17.7926 1.80066 19.1797L1.65967 55.2544C1.65959 55.6382 1.74412 56.0172 1.90718 56.3643C2.07024 56.7113 2.30777 57.0178 2.60271 57.2616C2.89765 57.5053 3.24267 57.6804 3.61295 57.7742C3.98324 57.868 4.3696 57.8782 4.74426 57.804C7.95314 57.1851 11.2143 56.8812 14.4816 56.8965Z" fill="#F0F5F8"/>
<path d="M43.94 70C42.6615 70.0005 41.4237 69.5485 40.4436 68.7233C32.1409 61.7359 26.4207 58.612 14.4706 58.5647C11.3104 58.5533 8.15637 58.8481 5.05236 59.4449C4.4372 59.5649 3.80322 59.5465 3.19596 59.3911C2.58871 59.2356 2.02325 58.9469 1.5402 58.5456C1.05716 58.1444 0.668533 57.6406 0.402231 57.0705C0.135929 56.5003 -0.00143336 55.878 1.12777e-05 55.2482L0.13977 19.176C0.136096 17.4078 0.733263 15.6914 1.83242 14.3109C2.93158 12.9303 4.46683 11.9684 6.18404 11.5844C9.75036 10.7772 13.3963 10.3794 17.0519 10.3985C29.5807 10.4482 36.2372 14.1924 44.149 21.5515C52.333 14.0258 58.4379 10.6384 70.6167 10.6471H70.8257C74.6021 10.6605 78.3642 11.1152 82.0361 12.0021C83.7429 12.4104 85.2617 13.3878 86.3448 14.7751C87.4279 16.1624 88.0113 17.8776 88 19.6409L87.8602 55.7181C87.8568 56.3506 87.7133 56.9745 87.4401 57.5444C87.167 58.1143 86.7711 58.616 86.2811 59.013C85.7911 59.4101 85.2193 59.6925 84.6072 59.8399C83.9952 59.9872 83.3581 59.9958 82.7423 59.865C79.5204 59.1911 76.239 58.8451 72.9481 58.832C61.4878 58.7786 56.2982 61.3915 47.413 68.7507C46.4353 69.5608 45.2071 70.0026 43.94 70ZM14.488 55.2283C27.3804 55.2792 33.818 58.7947 42.5758 66.1675C42.9572 66.4875 43.4377 66.6636 43.9345 66.6654C44.4313 66.6672 44.9131 66.4947 45.2968 66.1775C54.2624 58.7524 60.3932 55.4421 72.9555 55.498C76.4701 55.5116 79.9744 55.8814 83.4152 56.6019C83.5518 56.6323 83.6934 56.6311 83.8295 56.5984C83.9656 56.5656 84.0924 56.5022 84.2005 56.4129C84.3061 56.3282 84.3914 56.2206 84.4498 56.0981C84.5083 55.9756 84.5385 55.8415 84.5382 55.7056L84.6779 19.6297C84.6835 18.6171 84.3473 17.6325 83.7241 16.8368C83.1009 16.0411 82.2277 15.4814 81.247 15.249C77.8257 14.4236 74.3207 14.0002 70.8022 13.9873C58.9821 13.9463 53.5933 17.2107 45.2708 25.0509L44.1268 26.1286L42.9902 25.0422C35.0264 17.4207 29.112 13.7847 17.0333 13.7374C13.6266 13.7203 10.229 14.0907 6.9051 14.8413C5.92314 15.0629 5.04601 15.6152 4.4191 16.4065C3.79218 17.1978 3.45313 18.1806 3.45812 19.1921L3.3196 55.2618C3.31808 55.3968 3.34687 55.5304 3.40383 55.6527C3.46079 55.7749 3.54445 55.8827 3.64859 55.9679C3.75559 56.0585 3.88165 56.1234 4.01727 56.1579C4.15289 56.1923 4.29452 56.1954 4.43149 56.1668C7.7454 55.5267 11.1134 55.2123 14.488 55.2283Z" fill="#F0F5F8"/>
<path d="M43.267 40.3149C43.2212 40.2763 38.6104 36.4041 31.1661 33.1372C24.3463 30.1439 13.6678 27.0548 1.52727 29.3371L0.989258 26.4705C13.8966 24.0415 25.2035 27.322 32.4165 30.5019C40.2257 33.9428 44.9454 37.9144 45.1432 38.0847L43.267 40.3149Z" fill="#7BBBBB"/>
<path d="M43.3796 54.3817C43.3277 54.3457 38.0911 50.8153 30.3177 47.935C23.2098 45.3034 12.4533 42.6879 1.57188 45.1791L0.92627 42.3324C12.5312 39.6759 23.9012 42.4381 31.3962 45.2238C39.4812 48.2284 44.7859 51.8123 45.0085 51.9639L43.3796 54.3817Z" fill="#7BBBBB"/>
<path d="M45.2883 40.3149C45.3341 40.2763 49.9449 36.4041 57.3893 33.1372C64.209 30.1439 74.8876 27.0548 87.0281 29.3408L87.5661 26.4705C74.6588 24.0415 63.3519 27.322 56.1388 30.5019C48.3297 33.9428 43.61 37.9144 43.4121 38.0847L45.2883 40.3149Z" fill="#7BBBBB"/>
<path d="M45.1758 54.3817C45.2277 54.3457 50.4643 50.8153 58.2377 47.935C65.3456 45.3034 76.1021 42.6879 86.9835 45.1791L87.6291 42.3324C76.0242 39.6759 64.6542 42.4381 57.1592 45.2238C49.0742 48.2321 43.7695 51.8135 43.5469 51.9614L45.1758 54.3817Z" fill="#7BBBBB"/>
<path d="M40.2026 66.3739C40.4599 66.6412 40.9831 66.9892 41.2366 67.2627C41.5792 67.6379 41.9953 67.9378 42.4587 68.1436C42.9221 68.3494 43.4228 68.4567 43.9295 68.4586C44.4361 68.4606 44.9377 68.3573 45.4027 68.1551C45.8677 67.9529 46.2861 67.6563 46.6316 67.2838C46.8863 67.0128 47.4132 66.6623 47.6717 66.4037L46.4349 66.2086C44.7792 65.9465 43.0934 65.9398 41.4357 66.1887L40.2026 66.3739Z" fill="#F0F5F8"/>
<path d="M44.6315 6.40442C44.171 7.27908 43.8199 8.20769 43.5864 9.16906C46.1354 9.72006 48.7937 9.41879 51.1565 8.31112C53.5194 7.20345 55.4574 5.35006 56.6755 3.03314C57.1361 2.15848 57.4871 1.22986 57.7206 0.268494C55.1717 -0.282504 52.5134 0.0187664 50.1505 1.12644C47.7877 2.23411 45.8496 4.08749 44.6315 6.40442Z" fill="#7BBBBB"/>
<path d="M44.2406 6.61324C44.6998 7.48854 45.0496 8.41755 45.282 9.37913C42.7322 9.92597 40.0744 9.62053 37.7131 8.50931C35.3519 7.39808 33.4165 5.54192 32.2015 3.22332C31.7434 2.34753 31.3937 1.41866 31.1602 0.457426C33.71 -0.0898372 36.368 0.215404 38.7293 1.32667C41.0906 2.43794 43.026 4.29435 44.2406 6.61324Z" fill="#7BBBBB"/>
<path d="M43.94 70C42.6615 70.0005 41.4237 69.5485 40.4436 68.7233C32.1409 61.7359 26.4207 58.612 14.4706 58.5647C11.3104 58.5533 8.15637 58.8481 5.05236 59.4449C4.4372 59.5649 3.80322 59.5465 3.19596 59.3911C2.58871 59.2356 2.02325 58.9469 1.5402 58.5456C1.05716 58.1444 0.668533 57.6406 0.402231 57.0705C0.135929 56.5003 -0.00143336 55.878 1.12777e-05 55.2482L0.13977 19.176C0.136096 17.4078 0.733263 15.6914 1.83242 14.3109C2.93158 12.9303 4.46683 11.9684 6.18404 11.5844C9.75036 10.7772 13.3963 10.3794 17.0519 10.3985C29.5807 10.4482 36.2372 14.1924 44.149 21.5515C52.333 14.0258 58.4379 10.6384 70.6167 10.6471H70.8257C74.6021 10.6605 78.3642 11.1152 82.0361 12.0021C83.7429 12.4104 85.2617 13.3878 86.3448 14.7751C87.4279 16.1624 88.0113 17.8776 88 19.6409L87.8602 55.7181C87.8568 56.3506 87.7133 56.9745 87.4401 57.5444C87.167 58.1143 86.7711 58.616 86.2811 59.013C85.7911 59.4101 85.2193 59.6925 84.6072 59.8399C83.9952 59.9872 83.3581 59.9958 82.7423 59.865C79.5204 59.1911 76.239 58.8451 72.9481 58.832C61.4878 58.7786 56.2982 61.3915 47.413 68.7507C46.4353 69.5608 45.2071 70.0026 43.94 70ZM14.488 55.2283C27.3804 55.2792 33.818 58.7947 42.5758 66.1675C42.9572 66.4875 43.4377 66.6636 43.9345 66.6654C44.4313 66.6672 44.9131 66.4947 45.2968 66.1775C54.2624 58.7524 60.3932 55.4421 72.9555 55.498C76.4701 55.5116 79.9744 55.8814 83.4152 56.6019C83.5518 56.6323 83.6934 56.6311 83.8295 56.5984C83.9656 56.5656 84.0924 56.5022 84.2005 56.4129C84.3061 56.3282 84.3914 56.2206 84.4498 56.0981C84.5083 55.9756 84.5385 55.8415 84.5382 55.7056L84.6779 19.6297C84.6835 18.6171 84.3473 17.6325 83.7241 16.8368C83.1009 16.0411 82.2277 15.4814 81.247 15.249C77.8257 14.4236 74.3207 14.0002 70.8022 13.9873C58.9821 13.9463 53.5933 17.2107 45.2708 25.0509L44.1268 26.1286L42.9902 25.0422C35.0264 17.4207 29.112 13.7847 17.0333 13.7374C13.6266 13.7203 10.229 14.0907 6.9051 14.8413C5.92314 15.0629 5.04601 15.6152 4.4191 16.4065C3.79218 17.1978 3.45313 18.1806 3.45812 19.1921L3.3196 55.2618C3.31808 55.3968 3.34687 55.5304 3.40383 55.6527C3.46079 55.7749 3.54445 55.8827 3.64859 55.9679C3.75559 56.0585 3.88165 56.1234 4.01727 56.1579C4.15289 56.1923 4.29452 56.1954 4.43149 56.1668C7.7454 55.5267 11.1134 55.2123 14.488 55.2283Z" fill="#7BBBBB"/>
<path d="M45.762 7.91724H42.6489V67.9799H45.762V7.91724Z" fill="#7BBBBB"/>
</g>
<defs>
<clipPath id="clip0_313_1091">
<rect width="88.0002" height="70.0002" fill="white"/>
</clipPath>
</defs>
</svg>
