<svg width="180" height="180" viewBox="0 0 180 180" fill="none" xmlns="http://www.w3.org/2000/svg">
<path d="M180 90C180 139.706 139.706 180 90 180C40.2944 180 0 139.706 0 90C0 40.2944 40.2944 0 90 0C139.706 0 180 40.2944 180 90Z" fill="#CFE5E7"/>
<path d="M90.5 140C88.4964 140 86.8181 139.321 85.4651 137.963C84.1074 136.61 83.4286 134.932 83.4286 132.929V97.5714H48.0714C46.0679 97.5714 44.3872 96.8926 43.0295 95.5349C41.6765 94.1819 41 92.5036 41 90.5C41 88.4964 41.6765 86.8158 43.0295 85.4581C44.3872 84.1051 46.0679 83.4286 48.0714 83.4286H83.4286V48.0714C83.4286 46.0679 84.1074 44.3872 85.4651 43.0295C86.8181 41.6765 88.4964 41 90.5 41C92.5036 41 94.1842 41.6765 95.5419 43.0295C96.8949 44.3872 97.5714 46.0679 97.5714 48.0714V83.4286H132.929C134.932 83.4286 136.61 84.1051 137.963 85.4581C139.321 86.8158 140 88.4964 140 90.5C140 92.5036 139.321 94.1819 137.963 95.5349C136.61 96.8926 134.932 97.5714 132.929 97.5714H97.5714V132.929C97.5714 134.932 96.8949 136.61 95.5419 137.963C94.1842 139.321 92.5036 140 90.5 140Z" fill="#7BBBBB"/>
</svg>
