<svg width="20" height="20" viewBox="0 0 20 20" fill="none" xmlns="http://www.w3.org/2000/svg">
<path d="M9.9998 0C4.47722 0 0 4.47722 0 9.9998C0 15.5224 4.47722 20 9.9998 20C15.5224 20 20 15.5228 20 9.9998C20 4.47682 15.5228 0 9.9998 0ZM15.1148 8.016L9.75785 13.373C9.56765 13.5625 9.31012 13.6688 9.04166 13.6688C8.77319 13.6688 8.51566 13.5625 8.32546 13.373L5.67731 10.7248C5.58345 10.631 5.50899 10.5196 5.45819 10.397C5.40739 10.2744 5.38124 10.143 5.38124 10.0102C5.38124 9.87753 5.40739 9.74611 5.45819 9.6235C5.50899 9.50089 5.58345 9.38949 5.67731 9.29566C5.7711 9.20181 5.88247 9.12736 6.00505 9.07657C6.12763 9.02577 6.25901 8.99963 6.3917 8.99963C6.52438 8.99963 6.65577 9.02577 6.77834 9.07657C6.90092 9.12736 7.01229 9.20181 7.10608 9.29566L9.04286 11.2312L13.6861 6.58722C13.7799 6.49337 13.8912 6.41892 14.0138 6.36813C14.1364 6.31733 14.2678 6.29119 14.4005 6.29119C14.5331 6.29119 14.6645 6.31733 14.7871 6.36813C14.9097 6.41892 15.021 6.49337 15.1148 6.58722C15.2087 6.68102 15.2831 6.79238 15.3339 6.91496C15.3847 7.03754 15.4109 7.16892 15.4109 7.30161C15.4109 7.43429 15.3847 7.56568 15.3339 7.68826C15.2831 7.81083 15.2087 7.9222 15.1148 8.016Z" fill="#7BBBBB"/>
</svg>
